# Blender v3.2.0 OBJ File: 'maze1.blend'
# www.blender.org
mtllib maze2.mtl
o Cube.003_Cube.007
v -12.240179 0.209372 -9.958749
v -12.240179 -0.232580 -9.958749
v -12.240179 0.209372 9.811756
v -12.240179 -0.232580 9.811756
v -12.746073 0.209372 -9.958749
v -12.746073 -0.232580 -9.958749
v -12.746073 0.209372 9.811756
v -12.746073 -0.232580 9.811756
v -12.457274 -0.094313 0.662427
vt 0.330823 0.500000
vt 0.443607 6.764586
vt 0.443607 0.500000
vt 0.556392 13.029173
vt 0.556392 6.764586
vt 0.443607 -12.029173
vt 0.556392 -5.764586
vt 0.556392 -12.029173
vt 0.556392 0.500000
vt 0.669178 6.764586
vt 0.669178 0.500000
vt 0.443607 -5.764586
vt 0.330823 6.764586
vt 0.443607 13.029173
vn 0.0000 1.0000 0.0000
vn 0.0000 0.0000 1.0000
vn -1.0000 0.0000 0.0000
vn 0.0000 -1.0000 0.0000
vn 1.0000 0.0000 0.0000
vn 0.0000 0.0000 -1.0000
g Cube.003_Cube.007_Material.007
usemtl Material.007
s off
f 5/1/1 3/2/1 1/3/1
f 3/2/2 8/4/2 4/5/2
f 7/6/3 6/7/3 8/8/3
f 2/9/4 8/10/4 6/11/4
f 1/3/5 4/5/5 2/9/5
f 5/12/6 2/9/6 6/7/6
f 5/1/1 7/13/1 3/2/1
f 3/2/2 7/14/2 8/4/2
f 7/6/3 5/12/3 6/7/3
f 2/9/4 4/5/4 8/10/4
f 1/3/5 3/2/5 4/5/5
f 5/12/6 1/3/6 2/9/6
o Cube.005_Cube.008
v -12.283739 0.209372 -10.465558
v -12.283739 -0.232580 -10.465558
v 7.486766 0.209372 -10.465559
v 7.486766 -0.232580 -10.465559
v -12.283739 0.209372 -9.959664
v -12.283739 -0.232580 -9.959664
v 7.486766 0.209372 -9.959665
v 7.486766 -0.232580 -9.959665
v -1.662564 -0.094313 -10.248463
vt 1.265087 0.500000
vt 0.755029 2.756706
vt 0.755029 0.500000
vt 0.244971 5.013411
vt 0.244971 2.756706
vt 0.755029 -4.013411
vt 0.244971 -1.756706
vt 0.244971 -4.013411
vt 0.244971 0.500000
vt -0.265088 2.756706
vt -0.265088 0.500000
vt 0.755029 -1.756706
vt 1.265087 2.756706
vt 0.755029 5.013411
vn 0.0000 1.0000 0.0000
vn 1.0000 0.0000 0.0000
vn 0.0000 0.0000 1.0000
vn 0.0000 -1.0000 0.0000
vn 0.0000 0.0000 -1.0000
vn -1.0000 0.0000 0.0000
g Cube.005_Cube.008_Material.008
usemtl Material.008
s off
f 14/15/7 12/16/7 10/17/7
f 12/16/8 17/18/8 13/19/8
f 16/20/9 15/21/9 17/22/9
f 11/23/10 17/24/10 15/25/10
f 10/17/11 13/19/11 11/23/11
f 14/26/12 11/23/12 15/21/12
f 14/15/7 16/27/7 12/16/7
f 12/16/8 16/28/8 17/18/8
f 16/20/9 14/26/9 15/21/9
f 11/23/10 13/19/10 17/24/10
f 10/17/11 12/16/11 13/19/11
f 14/26/12 10/17/12 11/23/12
o Cube.004_Cube.001
v 7.563629 -0.140628 -9.958749
v 7.563629 -0.582580 -9.958749
v 7.563629 -0.140628 9.811756
v 7.563629 -0.582580 9.811756
v -12.211319 -0.140628 -9.958749
v -12.211319 -0.582580 -9.958749
v -12.211319 -0.140628 9.811756
v -12.211319 -0.582580 9.811756
v -0.922470 -0.444313 0.662427
vt -3.981377 0.500000
vt -0.993793 -1.485667
vt -0.993793 0.500000
vt 1.993793 -3.471334
vt 1.993793 -1.485667
vt -0.993793 4.471334
vt 1.993793 2.485667
vt 1.993793 4.471334
vt 1.993793 0.500000
vt 4.981378 -1.485667
vt 4.981378 0.500000
vt -0.993793 2.485667
vt -3.981377 -1.485667
vt -0.993793 -3.471334
vn 0.0000 1.0000 0.0000
vn 0.0000 0.0000 1.0000
vn -1.0000 0.0000 0.0000
vn 0.0000 -1.0000 0.0000
vn 1.0000 0.0000 0.0000
vn 0.0000 0.0000 -1.0000
g Cube.004_Cube.001_Material.009
usemtl Material.009
s off
f 23/29/13 21/30/13 19/31/13
f 21/30/14 26/32/14 22/33/14
f 25/34/15 24/35/15 26/36/15
f 20/37/16 26/38/16 24/39/16
f 19/31/17 22/33/17 20/37/17
f 23/40/18 20/37/18 24/35/18
f 23/29/13 25/41/13 21/30/13
f 21/30/14 25/42/14 26/32/14
f 25/34/15 23/40/15 24/35/15
f 20/37/16 22/33/16 26/38/16
f 19/31/17 21/30/17 22/33/17
f 23/40/18 19/31/18 20/37/18
o Cube.007_Cube.006
v 7.989820 0.209372 -9.958749
v 7.989820 -0.232580 -9.958749
v 7.989820 0.209372 9.811756
v 7.989820 -0.232580 9.811756
v 7.483926 0.209372 -9.958749
v 7.483926 -0.232580 -9.958749
v 7.483926 0.209372 9.811756
v 7.483926 -0.232580 9.811756
v 7.772723 -0.094313 0.662427
vt -0.198915 0.500000
vt 0.267028 1.603384
vt 0.267028 0.500000
vt 0.732971 2.706768
vt 0.732971 1.603384
vt 0.267028 -1.706768
vt 0.732971 -0.603384
vt 0.732971 -1.706768
vt 0.732971 0.500000
vt 1.198915 1.603384
vt 1.198915 0.500000
vt 0.267028 -0.603384
vt -0.198915 1.603384
vt 0.267028 2.706768
vn 0.0000 1.0000 0.0000
vn 0.0000 0.0000 1.0000
vn -1.0000 0.0000 0.0000
vn 0.0000 -1.0000 0.0000
vn 1.0000 0.0000 0.0000
vn 0.0000 0.0000 -1.0000
g Cube.007_Cube.006_Material.005
usemtl Material.005
s off
f 32/43/19 30/44/19 28/45/19
f 30/44/20 35/46/20 31/47/20
f 34/48/21 33/49/21 35/50/21
f 29/51/22 35/52/22 33/53/22
f 28/45/23 31/47/23 29/51/23
f 32/54/24 29/51/24 33/49/24
f 32/43/19 34/55/19 30/44/19
f 30/44/20 34/56/20 35/46/20
f 34/48/21 32/54/21 33/49/21
f 29/51/22 31/47/22 35/52/22
f 28/45/23 30/44/23 31/47/23
f 32/54/24 28/45/24 29/51/24
o Cube.001_Cube.009
v -12.283739 0.209372 9.767907
v -12.283739 -0.232580 9.767907
v 7.486766 0.209372 9.767906
v 7.486766 -0.232580 9.767906
v -12.283739 0.209372 10.273802
v -12.283739 -0.232580 10.273802
v 7.486766 0.209372 10.273801
v 7.486766 -0.232580 10.273801
v -1.662563 -0.094313 9.985003
vt 0.274538 0.500000
vt 0.424846 2.687900
vt 0.424846 0.500000
vt 0.575154 4.875800
vt 0.575154 2.687900
vt 0.424846 -3.875800
vt 0.575154 -1.687900
vt 0.575154 -3.875800
vt 0.575154 0.500000
vt 0.725462 2.687900
vt 0.725462 0.500000
vt 0.424846 -1.687900
vt 0.274538 2.687900
vt 0.424846 4.875800
vn 0.0000 1.0000 0.0000
vn 1.0000 0.0000 0.0000
vn 0.0000 0.0000 1.0000
vn 0.0000 -1.0000 0.0000
vn -0.0000 0.0000 -1.0000
vn -1.0000 0.0000 0.0000
g Cube.001_Cube.009_Material.006
usemtl Material.006
s off
f 41/57/25 39/58/25 37/59/25
f 39/58/26 44/60/26 40/61/26
f 43/62/27 42/63/27 44/64/27
f 38/65/28 44/66/28 42/67/28
f 37/59/29 40/61/29 38/65/29
f 41/68/30 38/65/30 42/63/30
f 41/57/25 43/69/25 39/58/25
f 39/58/26 43/70/26 44/60/26
f 43/62/27 41/68/27 42/63/27
f 38/65/28 40/61/28 44/66/28
f 37/59/29 39/58/29 40/61/29
f 41/68/30 37/59/30 38/65/30
o Cube.008_Cube.010
v -6.987625 0.209372 -3.012093
v -6.987625 -0.232580 -3.012093
v -1.056473 0.209372 -3.012093
v -1.056473 -0.232580 -3.012093
v -6.987625 0.209372 -2.506199
v -6.987625 -0.232580 -2.506199
v -1.056473 0.209372 -2.506199
v -1.056473 -0.232580 -2.506199
v -3.801272 -0.094313 -2.794997
vt 0.274538 0.500000
vt 0.424846 2.687900
vt 0.424846 0.500000
vt 0.575154 4.875800
vt 0.575154 2.687900
vt 0.424846 -3.875800
vt 0.575154 -1.687900
vt 0.575154 -3.875800
vt 0.575154 0.500000
vt 0.725462 2.687900
vt 0.725462 0.500000
vt 0.424846 -1.687900
vt 0.274538 2.687900
vt 0.424846 4.875800
vn 0.0000 1.0000 0.0000
vn 1.0000 0.0000 0.0000
vn 0.0000 0.0000 1.0000
vn 0.0000 -1.0000 0.0000
vn 0.0000 0.0000 -1.0000
vn -1.0000 0.0000 0.0000
g Cube.008_Cube.010_Material.010
usemtl Material.010
s off
f 50/71/31 48/72/31 46/73/31
f 48/72/32 53/74/32 49/75/32
f 52/76/33 51/77/33 53/78/33
f 47/79/34 53/80/34 51/81/34
f 46/73/35 49/75/35 47/79/35
f 50/82/36 47/79/36 51/77/36
f 50/71/31 52/83/31 48/72/31
f 48/72/32 52/84/32 53/74/32
f 52/76/33 50/82/33 51/77/33
f 47/79/34 49/75/34 53/80/34
f 46/73/35 48/72/35 49/75/35
f 50/82/36 46/73/36 47/79/36
o Cube.010_Cube.012
v 4.421939 0.209372 5.442062
v 4.421939 -0.232580 5.442062
v 4.421939 0.209372 6.430588
v 4.421939 -0.232580 6.430588
v 3.921054 0.209372 5.442062
v 3.921054 -0.232580 5.442062
v 3.921054 0.209372 6.430588
v 3.921054 -0.232580 6.430588
v 4.206993 -0.094313 5.973121
vt -0.198915 0.500000
vt 0.267028 1.603384
vt 0.267028 0.500000
vt 0.732971 2.706768
vt 0.732971 1.603384
vt 0.267028 -1.706768
vt 0.732971 -0.603384
vt 0.732971 -1.706768
vt 0.732971 0.500000
vt 1.198915 1.603384
vt 1.198915 0.500000
vt 0.267028 -0.603384
vt -0.198915 1.603384
vt 0.267028 2.706768
vn 0.0000 1.0000 0.0000
vn 0.0000 0.0000 1.0000
vn -1.0000 0.0000 0.0000
vn 0.0000 -1.0000 0.0000
vn 1.0000 0.0000 0.0000
vn 0.0000 0.0000 -1.0000
g Cube.010_Cube.012_Material.012
usemtl Material.012
s off
f 59/85/37 57/86/37 55/87/37
f 57/86/38 62/88/38 58/89/38
f 61/90/39 60/91/39 62/92/39
f 56/93/40 62/94/40 60/95/40
f 55/87/41 58/89/41 56/93/41
f 59/96/42 56/93/42 60/91/42
f 59/85/37 61/97/37 57/86/37
f 57/86/38 61/98/38 62/88/38
f 61/90/39 59/96/39 60/91/39
f 56/93/40 58/89/40 62/94/40
f 55/87/41 57/86/41 58/89/41
f 59/96/42 55/87/42 56/93/42
o Cube.011_Cube.013
v 0.425559 0.209372 0.037219
v 0.425559 -0.232580 0.037219
v 0.425559 0.209372 3.497057
v 0.425559 -0.232580 3.497057
v -0.080335 0.209372 0.037219
v -0.080335 -0.232580 0.037219
v -0.080335 0.209372 3.497057
v -0.080335 -0.232580 3.497057
v 0.208463 -0.094313 1.895925
vt -0.198915 0.500000
vt 0.267028 1.603384
vt 0.267028 0.500000
vt 0.732971 2.706768
vt 0.732971 1.603384
vt 0.267028 -1.706768
vt 0.732971 -0.603384
vt 0.732971 -1.706768
vt 0.732971 0.500000
vt 1.198915 1.603384
vt 1.198915 0.500000
vt 0.267028 -0.603384
vt -0.198915 1.603384
vt 0.267028 2.706768
vn 0.0000 1.0000 0.0000
vn 0.0000 0.0000 1.0000
vn -1.0000 0.0000 0.0000
vn 0.0000 -1.0000 0.0000
vn 1.0000 0.0000 0.0000
vn 0.0000 0.0000 -1.0000
g Cube.011_Cube.013_Material.013
usemtl Material.013
s off
f 68/99/43 66/100/43 64/101/43
f 66/100/44 71/102/44 67/103/44
f 70/104/45 69/105/45 71/106/45
f 65/107/46 71/108/46 69/109/46
f 64/101/47 67/103/47 65/107/47
f 68/110/48 65/107/48 69/105/48
f 68/99/43 70/111/43 66/100/43
f 66/100/44 70/112/44 71/102/44
f 70/104/45 68/110/45 69/105/45
f 65/107/46 67/103/46 71/108/46
f 64/101/47 66/100/47 67/103/47
f 68/110/48 64/101/48 65/107/48
o Cube.013_Cube.015
v 4.425559 0.209372 0.012375
v 4.425559 -0.232580 0.012375
v 4.425559 0.209372 5.943527
v 4.425559 -0.232580 5.943527
v 3.919665 0.209372 0.012375
v 3.919665 -0.232580 0.012375
v 3.919665 0.209372 5.943527
v 3.919665 -0.232580 5.943527
v 4.208463 -0.094313 3.198728
vt -0.198915 0.500000
vt 0.267028 1.603384
vt 0.267028 0.500000
vt 0.732971 2.706768
vt 0.732971 1.603384
vt 0.267028 -1.706768
vt 0.732971 -0.603384
vt 0.732971 -1.706768
vt 0.732971 0.500000
vt 1.198915 1.603384
vt 1.198915 0.500000
vt 0.267028 -0.603384
vt -0.198915 1.603384
vt 0.267028 2.706768
vn 0.0000 1.0000 0.0000
vn 0.0000 0.0000 1.0000
vn -1.0000 0.0000 0.0000
vn 0.0000 -1.0000 0.0000
vn 1.0000 0.0000 0.0000
vn 0.0000 0.0000 -1.0000
g Cube.013_Cube.015_Material.015
usemtl Material.015
s off
f 77/113/49 75/114/49 73/115/49
f 75/114/50 80/116/50 76/117/50
f 79/118/51 78/119/51 80/120/51
f 74/121/52 80/122/52 78/123/52
f 73/115/53 76/117/53 74/121/53
f 77/124/54 74/121/54 78/119/54
f 77/113/49 79/125/49 75/114/49
f 75/114/50 79/126/50 80/116/50
f 79/118/51 77/124/51 78/119/51
f 74/121/52 76/117/52 80/122/52
f 73/115/53 75/114/53 76/117/53
f 77/124/54 73/115/54 74/121/54
o Cube.002_Cube.016
v -12.765249 0.209372 -7.012093
v -12.765249 -0.232580 -7.012093
v -0.902946 0.209372 -7.012094
v -0.902946 -0.232580 -7.012094
v -12.765249 0.209372 -6.506198
v -12.765249 -0.232580 -6.506198
v -0.902946 0.209372 -6.506199
v -0.902946 -0.232580 -6.506199
v -6.392544 -0.094313 -6.794996
vt 0.274538 0.500000
vt 0.424846 2.687900
vt 0.424846 0.500000
vt 0.575154 4.875800
vt 0.575154 2.687900
vt 0.424846 -3.875800
vt 0.575154 -1.687900
vt 0.575154 -3.875800
vt 0.575154 0.500000
vt 0.725462 2.687900
vt 0.725462 0.500000
vt 0.424846 -1.687900
vt 0.274538 2.687900
vt 0.424846 4.875800
vn 0.0000 1.0000 0.0000
vn 1.0000 0.0000 0.0000
vn 0.0000 0.0000 1.0000
vn 0.0000 -1.0000 0.0000
vn -0.0000 0.0000 -1.0000
vn -1.0000 0.0000 0.0000
g Cube.002_Cube.016_Material.016
usemtl Material.016
s off
f 86/127/55 84/128/55 82/129/55
f 84/128/56 89/130/56 85/131/56
f 88/132/57 87/133/57 89/134/57
f 83/135/58 89/136/58 87/137/58
f 82/129/59 85/131/59 83/135/59
f 86/138/60 83/135/60 87/133/60
f 86/127/55 88/139/55 84/128/55
f 84/128/56 88/140/56 89/130/56
f 88/132/57 86/138/57 87/133/57
f 83/135/58 85/131/58 89/136/58
f 82/129/59 84/128/59 85/131/59
f 86/138/60 82/129/60 83/135/60
o Cube.006_Cube.017
v -12.493813 0.209372 0.207907
v -12.493813 -0.232580 0.207907
v -9.528236 0.209372 0.207907
v -9.528236 -0.232580 0.207907
v -12.493813 0.209372 0.713801
v -12.493813 -0.232580 0.713801
v -9.528236 0.209372 0.713801
v -9.528236 -0.232580 0.713801
v -10.900636 -0.094313 0.425004
vt 0.274538 0.500000
vt 0.424846 2.687900
vt 0.424846 0.500000
vt 0.575154 4.875800
vt 0.575154 2.687900
vt 0.424846 -3.875800
vt 0.575154 -1.687900
vt 0.575154 -3.875800
vt 0.575154 0.500000
vt 0.725462 2.687900
vt 0.725462 0.500000
vt 0.424846 -1.687900
vt 0.274538 2.687900
vt 0.424846 4.875800
vn 0.0000 1.0000 0.0000
vn 1.0000 0.0000 0.0000
vn 0.0000 0.0000 1.0000
vn 0.0000 -1.0000 0.0000
vn -0.0000 0.0000 -1.0000
vn -1.0000 0.0000 0.0000
g Cube.006_Cube.017_Material.017
usemtl Material.017
s off
f 95/141/61 93/142/61 91/143/61
f 93/142/62 98/144/62 94/145/62
f 97/146/63 96/147/63 98/148/63
f 92/149/64 98/150/64 96/151/64
f 91/143/65 94/145/65 92/149/65
f 95/152/66 92/149/66 96/147/66
f 95/141/61 97/153/61 93/142/61
f 93/142/62 97/154/62 98/144/62
f 97/146/63 95/152/63 96/147/63
f 92/149/64 94/145/64 98/150/64
f 91/143/65 93/142/65 94/145/65
f 95/152/66 91/143/66 92/149/66
o Cube.014_Cube.018
v -3.983500 0.209372 5.937906
v -3.983500 -0.232580 5.937906
v 3.924702 0.209372 5.937906
v 3.924702 -0.232580 5.937906
v -3.983500 0.209372 6.443800
v -3.983500 -0.232580 6.443800
v 3.924702 0.209372 6.443800
v 3.924702 -0.232580 6.443800
v 0.264971 -0.094313 6.155003
vt 0.274538 0.500000
vt 0.424846 2.687900
vt 0.424846 0.500000
vt 0.575154 4.875800
vt 0.575154 2.687900
vt 0.424846 -3.875800
vt 0.575154 -1.687900
vt 0.575154 -3.875800
vt 0.575154 0.500000
vt 0.725462 2.687900
vt 0.725462 0.500000
vt 0.424846 -1.687900
vt 0.274538 2.687900
vt 0.424846 4.875800
vn 0.0000 1.0000 0.0000
vn 1.0000 0.0000 0.0000
vn 0.0000 0.0000 1.0000
vn 0.0000 -1.0000 0.0000
vn 0.0000 0.0000 -1.0000
vn -1.0000 0.0000 0.0000
g Cube.014_Cube.018_Material.018
usemtl Material.018
s off
f 104/155/67 102/156/67 100/157/67
f 102/156/68 107/158/68 103/159/68
f 106/160/69 105/161/69 107/162/69
f 101/163/70 107/164/70 105/165/70
f 100/157/71 103/159/71 101/163/71
f 104/166/72 101/163/72 105/161/72
f 104/155/67 106/167/67 102/156/67
f 102/156/68 106/168/68 107/158/68
f 106/160/69 104/166/69 105/161/69
f 101/163/70 103/159/70 107/164/70
f 100/157/71 102/156/71 103/159/71
f 104/166/72 100/157/72 101/163/72
o Cube.015_Cube.019
v 4.425559 0.209372 -9.983500
v 4.425559 -0.232580 -9.983500
v 4.425559 0.209372 -2.075298
v 4.425559 -0.232580 -2.075298
v 3.919665 0.209372 -9.983500
v 3.919665 -0.232580 -9.983500
v 3.919665 0.209372 -2.075298
v 3.919665 -0.232580 -2.075298
v 4.208463 -0.094313 -5.735029
vt -0.198915 0.500000
vt 0.267028 1.603384
vt 0.267028 0.500000
vt 0.732971 2.706768
vt 0.732971 1.603384
vt 0.267028 -1.706768
vt 0.732971 -0.603384
vt 0.732971 -1.706768
vt 0.732971 0.500000
vt 1.198915 1.603384
vt 1.198915 0.500000
vt 0.267028 -0.603384
vt -0.198915 1.603384
vt 0.267028 2.706768
vn 0.0000 1.0000 0.0000
vn 0.0000 0.0000 1.0000
vn -1.0000 0.0000 0.0000
vn 0.0000 -1.0000 0.0000
vn 1.0000 0.0000 0.0000
vn 0.0000 0.0000 -1.0000
g Cube.015_Cube.019_Material.019
usemtl Material.019
s off
f 113/169/73 111/170/73 109/171/73
f 111/170/74 116/172/74 112/173/74
f 115/174/75 114/175/75 116/176/75
f 110/177/76 116/178/76 114/179/76
f 109/171/77 112/173/77 110/177/77
f 113/180/78 110/177/78 114/175/78
f 113/169/73 115/181/73 111/170/73
f 111/170/74 115/182/74 116/172/74
f 115/174/75 113/180/75 114/175/75
f 110/177/76 112/173/76 116/178/76
f 109/171/77 111/170/77 112/173/77
f 113/180/78 109/171/78 110/177/78
o Cube.016_Cube.020
v -12.387625 0.209372 5.937906
v -12.387625 -0.232580 5.937906
v -6.456472 0.209372 5.937906
v -6.456472 -0.232580 5.937906
v -12.387625 0.209372 6.443800
v -12.387625 -0.232580 6.443800
v -6.456472 0.209372 6.443800
v -6.456472 -0.232580 6.443800
v -9.201272 -0.094313 6.155003
vt 0.274538 0.500000
vt 0.424846 2.687900
vt 0.424846 0.500000
vt 0.575154 4.875800
vt 0.575154 2.687900
vt 0.424846 -3.875800
vt 0.575154 -1.687900
vt 0.575154 -3.875800
vt 0.575154 0.500000
vt 0.725462 2.687900
vt 0.725462 0.500000
vt 0.424846 -1.687900
vt 0.274538 2.687900
vt 0.424846 4.875800
vn 0.0000 1.0000 0.0000
vn 1.0000 0.0000 0.0000
vn 0.0000 0.0000 1.0000
vn 0.0000 -1.0000 0.0000
vn 0.0000 0.0000 -1.0000
vn -1.0000 0.0000 0.0000
g Cube.016_Cube.020_Material.020
usemtl Material.020
s off
f 122/183/79 120/184/79 118/185/79
f 120/184/80 125/186/80 121/187/80
f 124/188/81 123/189/81 125/190/81
f 119/191/82 125/192/82 123/193/82
f 118/185/83 121/187/83 119/191/83
f 122/194/84 119/191/84 123/189/84
f 122/183/79 124/195/79 120/184/79
f 120/184/80 124/196/80 125/186/80
f 124/188/81 122/194/81 123/189/81
f 119/191/82 121/187/82 125/192/82
f 118/185/83 120/184/83 121/187/83
f 122/194/84 118/185/84 119/191/84
o Cube.019_Cube.023
v -6.454438 0.209372 -2.481437
v -6.454438 -0.232580 -2.481437
v -6.454438 0.209372 6.415290
v -6.454438 -0.232580 6.415290
v -6.960331 0.209372 -2.481437
v -6.960331 -0.232580 -2.481437
v -6.960331 0.209372 6.415290
v -6.960331 -0.232580 6.415290
v -6.671534 -0.094313 2.298092
vt -0.198915 0.500000
vt 0.267028 1.603384
vt 0.267028 0.500000
vt 0.732971 2.706768
vt 0.732971 1.603384
vt 0.267028 -1.706768
vt 0.732971 -0.603384
vt 0.732971 -1.706768
vt 0.732971 0.500000
vt 1.198915 1.603384
vt 1.198915 0.500000
vt 0.267028 -0.603384
vt -0.198915 1.603384
vt 0.267028 2.706768
vn 0.0000 1.0000 0.0000
vn 0.0000 0.0000 1.0000
vn -1.0000 0.0000 0.0000
vn 0.0000 -1.0000 0.0000
vn 1.0000 0.0000 0.0000
vn 0.0000 0.0000 -1.0000
g Cube.019_Cube.023_Material.023
usemtl Material.023
s off
f 131/197/85 129/198/85 127/199/85
f 129/198/86 134/200/86 130/201/86
f 133/202/87 132/203/87 134/204/87
f 128/205/88 134/206/88 132/207/88
f 127/199/89 130/201/89 128/205/89
f 131/208/90 128/205/90 132/203/90
f 131/197/85 133/209/85 129/198/85
f 129/198/86 133/210/86 134/200/86
f 133/202/87 131/208/87 132/203/87
f 128/205/88 130/201/88 134/206/88
f 127/199/89 129/198/89 130/201/89
f 131/208/90 127/199/90 128/205/90
o Cube.021_Cube.026
v -4.001750 0.209372 2.987907
v -4.001750 -0.232580 2.987907
v -0.047649 0.209372 2.987907
v -0.047649 -0.232580 2.987907
v -4.001750 0.209372 3.493801
v -4.001750 -0.232580 3.493801
v -0.047649 0.209372 3.493801
v -0.047649 -0.232580 3.493801
v -1.877515 -0.094313 3.205003
vt 0.274538 0.500000
vt 0.424846 2.687900
vt 0.424846 0.500000
vt 0.575154 4.875800
vt 0.575154 2.687900
vt 0.424846 -3.875800
vt 0.575154 -1.687900
vt 0.575154 -3.875800
vt 0.575154 0.500000
vt 0.725462 2.687900
vt 0.725462 0.500000
vt 0.424846 -1.687900
vt 0.274538 2.687900
vt 0.424846 4.875800
vn 0.0000 1.0000 0.0000
vn 1.0000 0.0000 0.0000
vn 0.0000 0.0000 1.0000
vn 0.0000 -1.0000 0.0000
vn 0.0000 0.0000 -1.0000
vn -1.0000 0.0000 0.0000
g Cube.021_Cube.026_Material.026
usemtl Material.026
s off
f 140/211/91 138/212/91 136/213/91
f 138/212/92 143/214/92 139/215/92
f 142/216/93 141/217/93 143/218/93
f 137/219/94 143/220/94 141/221/94
f 136/213/95 139/215/95 137/219/95
f 140/222/96 137/219/96 141/217/96
f 140/211/91 142/223/91 138/212/91
f 138/212/92 142/224/92 143/214/92
f 142/216/93 140/222/93 141/217/93
f 137/219/94 139/215/94 143/220/94
f 136/213/95 138/212/95 139/215/95
f 140/222/96 136/213/96 137/219/96
o Cube.022_Cube.027
v -9.743813 0.209372 2.987907
v -9.743813 -0.232580 2.987907
v -6.778236 0.209372 2.987907
v -6.778236 -0.232580 2.987907
v -9.743813 0.209372 3.493801
v -9.743813 -0.232580 3.493801
v -6.778236 0.209372 3.493801
v -6.778236 -0.232580 3.493801
v -8.150636 -0.094313 3.205003
vt 0.274538 0.500000
vt 0.424846 2.687900
vt 0.424846 0.500000
vt 0.575154 4.875800
vt 0.575154 2.687900
vt 0.424846 -3.875800
vt 0.575154 -1.687900
vt 0.575154 -3.875800
vt 0.575154 0.500000
vt 0.725462 2.687900
vt 0.725462 0.500000
vt 0.424846 -1.687900
vt 0.274538 2.687900
vt 0.424846 4.875800
vn 0.0000 1.0000 0.0000
vn 1.0000 0.0000 0.0000
vn 0.0000 0.0000 1.0000
vn 0.0000 -1.0000 0.0000
vn 0.0000 0.0000 -1.0000
vn -1.0000 0.0000 0.0000
g Cube.022_Cube.027_Material.027
usemtl Material.027
s off
f 149/225/97 147/226/97 145/227/97
f 147/226/98 152/228/98 148/229/98
f 151/230/99 150/231/99 152/232/99
f 146/233/100 152/234/100 150/235/100
f 145/227/101 148/229/101 146/233/101
f 149/236/102 146/233/102 150/231/102
f 149/225/97 151/237/97 147/226/97
f 147/226/98 151/238/98 152/228/98
f 151/230/99 149/236/99 150/231/99
f 146/233/100 148/229/100 152/234/100
f 145/227/101 147/226/101 148/229/101
f 149/236/102 145/227/102 146/233/102
