# Blender v3.2.0 OBJ File: 'maze1.blend'
# www.blender.org
mtllib maze1.mtl
o Cube.001_Cube.002
v 7.989820 0.418745 -9.958749
v 7.989820 -0.465160 -9.958749
v 7.989820 0.418745 9.811756
v 7.989820 -0.465160 9.811756
v 7.483926 0.418745 -9.958749
v 7.483926 -0.465160 -9.958749
v 7.483926 0.418745 9.811756
v 7.483926 -0.465160 9.811756
v 7.772723 -0.188625 0.662427
vt 0.875000 0.500000
vt 0.625000 0.750000
vt 0.625000 0.500000
vt 0.375000 1.000000
vt 0.375000 0.750000
vt 0.625000 0.000000
vt 0.375000 0.250000
vt 0.375000 0.000000
vt 0.375000 0.500000
vt 0.125000 0.750000
vt 0.125000 0.500000
vt 0.625000 0.250000
vt 0.875000 0.750000
vt 0.625000 1.000000
vn 0.0000 1.0000 0.0000
vn 0.0000 0.0000 1.0000
vn -1.0000 0.0000 0.0000
vn 0.0000 -1.0000 0.0000
vn 1.0000 0.0000 0.0000
vn 0.0000 0.0000 -1.0000
g Cube.001_Cube.002_Material.002
usemtl Material.002
s off
f 5/1/1 3/2/1 1/3/1
f 3/2/2 8/4/2 4/5/2
f 7/6/3 6/7/3 8/8/3
f 2/9/4 8/10/4 6/11/4
f 1/3/5 4/5/5 2/9/5
f 5/12/6 2/9/6 6/7/6
f 5/1/1 7/13/1 3/2/1
f 3/2/2 7/14/2 8/4/2
f 7/6/3 5/12/3 6/7/3
f 2/9/4 4/5/4 8/10/4
f 1/3/5 3/2/5 4/5/5
f 5/12/6 1/3/6 2/9/6
o Cube.002_Cube.003
v -12.283739 0.418745 9.767907
v -12.283739 -0.465160 9.767907
v 7.486766 0.418745 9.767906
v 7.486766 -0.465160 9.767906
v -12.283739 0.418745 10.273802
v -12.283739 -0.465160 10.273802
v 7.486766 0.418745 10.273801
v 7.486766 -0.465160 10.273801
v -1.662563 -0.188625 9.985003
vt 0.875000 0.500000
vt 0.625000 0.750000
vt 0.625000 0.500000
vt 0.375000 1.000000
vt 0.375000 0.750000
vt 0.625000 0.000000
vt 0.375000 0.250000
vt 0.375000 0.000000
vt 0.375000 0.500000
vt 0.125000 0.750000
vt 0.125000 0.500000
vt 0.625000 0.250000
vt 0.875000 0.750000
vt 0.625000 1.000000
vn 0.0000 1.0000 0.0000
vn 1.0000 0.0000 0.0000
vn 0.0000 0.0000 1.0000
vn 0.0000 -1.0000 0.0000
vn -0.0000 0.0000 -1.0000
vn -1.0000 0.0000 0.0000
g Cube.002_Cube.003_Material.003
usemtl Material.003
s off
f 14/15/7 12/16/7 10/17/7
f 12/16/8 17/18/8 13/19/8
f 16/20/9 15/21/9 17/22/9
f 11/23/10 17/24/10 15/25/10
f 10/17/11 13/19/11 11/23/11
f 14/26/12 11/23/12 15/21/12
f 14/15/7 16/27/7 12/16/7
f 12/16/8 16/28/8 17/18/8
f 16/20/9 14/26/9 15/21/9
f 11/23/10 13/19/10 17/24/10
f 10/17/11 12/16/11 13/19/11
f 14/26/12 10/17/12 11/23/12
o Cube.004_Cube.005
v -11.405389 1.540980 0.075487
v -11.405389 -1.711790 0.075487
v 7.574297 1.540980 0.075486
v 7.574297 -1.711790 0.075486
v -11.405389 1.540980 0.621451
v -11.405389 -1.711790 0.621451
v 7.574297 1.540980 0.621450
v 7.574297 -1.711790 0.621450
v -1.209061 -0.694141 0.309778
vt 0.875000 0.500000
vt 0.625000 0.750000
vt 0.625000 0.500000
vt 0.375000 1.000000
vt 0.375000 0.750000
vt 0.625000 0.000000
vt 0.375000 0.250000
vt 0.375000 0.000000
vt 0.375000 0.500000
vt 0.125000 0.750000
vt 0.125000 0.500000
vt 0.625000 0.250000
vt 0.875000 0.750000
vt 0.625000 1.000000
vn 0.0000 1.0000 0.0000
vn 1.0000 0.0000 0.0000
vn 0.0000 0.0000 1.0000
vn 0.0000 -1.0000 0.0000
vn -0.0000 0.0000 -1.0000
vn -1.0000 0.0000 0.0000
g Cube.004_Cube.005_Material.005
usemtl Material.005
s off
f 23/29/13 21/30/13 19/31/13
f 21/30/14 26/32/14 22/33/14
f 25/34/15 24/35/15 26/36/15
f 20/37/16 26/38/16 24/39/16
f 19/31/17 22/33/17 20/37/17
f 23/40/18 20/37/18 24/35/18
f 23/29/13 25/41/13 21/30/13
f 21/30/14 25/42/14 26/32/14
f 25/34/15 23/40/15 24/35/15
f 20/37/16 22/33/16 26/38/16
f 19/31/17 21/30/17 22/33/17
f 23/40/18 19/31/18 20/37/18
o Cube.003_Cube.007
v -12.240179 0.418745 -9.958749
v -12.240179 -0.465160 -9.958749
v -12.240179 0.418745 9.811756
v -12.240179 -0.465160 9.811756
v -12.746073 0.418745 -9.958749
v -12.746073 -0.465160 -9.958749
v -12.746073 0.418745 9.811756
v -12.746073 -0.465160 9.811756
v -12.457274 -0.188625 0.662427
vt 0.875000 0.500000
vt 0.625000 0.750000
vt 0.625000 0.500000
vt 0.375000 1.000000
vt 0.375000 0.750000
vt 0.625000 0.000000
vt 0.375000 0.250000
vt 0.375000 0.000000
vt 0.375000 0.500000
vt 0.125000 0.750000
vt 0.125000 0.500000
vt 0.625000 0.250000
vt 0.875000 0.750000
vt 0.625000 1.000000
vn 0.0000 1.0000 0.0000
vn 0.0000 0.0000 1.0000
vn -1.0000 0.0000 0.0000
vn 0.0000 -1.0000 0.0000
vn 1.0000 0.0000 0.0000
vn 0.0000 0.0000 -1.0000
g Cube.003_Cube.007_Material.007
usemtl Material.007
s off
f 32/43/19 30/44/19 28/45/19
f 30/44/20 35/46/20 31/47/20
f 34/48/21 33/49/21 35/50/21
f 29/51/22 35/52/22 33/53/22
f 28/45/23 31/47/23 29/51/23
f 32/54/24 29/51/24 33/49/24
f 32/43/19 34/55/19 30/44/19
f 30/44/20 34/56/20 35/46/20
f 34/48/21 32/54/21 33/49/21
f 29/51/22 31/47/22 35/52/22
f 28/45/23 30/44/23 31/47/23
f 32/54/24 28/45/24 29/51/24
o Cube.005_Cube.008
v -12.283739 0.418745 -10.465558
v -12.283739 -0.465160 -10.465558
v 7.486766 0.418745 -10.465559
v 7.486766 -0.465160 -10.465559
v -12.283739 0.418745 -9.959664
v -12.283739 -0.465160 -9.959664
v 7.486766 0.418745 -9.959665
v 7.486766 -0.465160 -9.959665
v -1.662564 -0.188625 -10.248463
vt 0.875000 0.500000
vt 0.625000 0.750000
vt 0.625000 0.500000
vt 0.375000 1.000000
vt 0.375000 0.750000
vt 0.625000 0.000000
vt 0.375000 0.250000
vt 0.375000 0.000000
vt 0.375000 0.500000
vt 0.125000 0.750000
vt 0.125000 0.500000
vt 0.625000 0.250000
vt 0.875000 0.750000
vt 0.625000 1.000000
vn 0.0000 1.0000 0.0000
vn 1.0000 0.0000 0.0000
vn 0.0000 0.0000 1.0000
vn 0.0000 -1.0000 0.0000
vn 0.0000 0.0000 -1.0000
vn -1.0000 0.0000 0.0000
g Cube.005_Cube.008_Material.008
usemtl Material.008
s off
f 41/57/25 39/58/25 37/59/25
f 39/58/26 44/60/26 40/61/26
f 43/62/27 42/63/27 44/64/27
f 38/65/28 44/66/28 42/67/28
f 37/59/29 40/61/29 38/65/29
f 41/68/30 38/65/30 42/63/30
f 41/57/25 43/69/25 39/58/25
f 39/58/26 43/70/26 44/60/26
f 43/62/27 41/68/27 42/63/27
f 38/65/28 40/61/28 44/66/28
f 37/59/29 39/58/29 40/61/29
f 41/68/30 37/59/30 38/65/30
