# Blender v3.2.0 OBJ File: 'maze1.blend'
# www.blender.org
mtllib sky.mtl
o Cube
v -47.939999 -45.360001 46.779999
v -47.939999 45.360001 46.779999
v -47.939999 -45.360001 -46.779999
v -47.939999 45.360001 -46.779999
v 47.939999 -45.360001 46.779999
v 47.939999 45.360001 46.779999
v 47.939999 -45.360001 -46.779999
v 47.939999 45.360001 -46.779999
vt 1.024600 -1.598398
vt -0.024599 -0.549199
vt -0.024599 -1.598398
vt 1.024600 -0.549199
vt -0.024599 0.500000
vt 1.024600 0.500000
vt -0.024599 1.549199
vt 1.024600 1.549199
vt -0.024599 2.598398
vt -1.073798 1.549199
vt -1.073798 0.500000
vt 2.073798 0.500000
vt 1.024600 2.598398
vt 2.073798 1.549199
vn -1.0000 0.0000 0.0000
vn 0.0000 0.0000 -1.0000
vn 1.0000 0.0000 0.0000
vn 0.0000 0.0000 1.0000
vn 0.0000 -1.0000 0.0000
vn 0.0000 1.0000 0.0000
g Cube_Cube_Material.028
usemtl Material.028
s off
f 2/1/1 3/2/1 1/3/1
f 4/4/2 7/5/2 3/2/2
f 8/6/3 5/7/3 7/5/3
f 6/8/4 1/9/4 5/7/4
f 7/5/5 1/10/5 3/11/5
f 4/12/6 6/8/6 8/6/6
f 2/1/1 4/4/1 3/2/1
f 4/4/2 8/6/2 7/5/2
f 8/6/3 6/8/3 5/7/3
f 6/8/4 2/13/4 1/9/4
f 7/5/5 5/7/5 1/10/5
f 4/12/6 2/14/6 6/8/6
